PathFileType	4	(X/Y/Z)	18_1_32_p1_0-212_filt_butterworth.trc
DataRate	CameraRate	NumFrames	NumMarkers	Units	OrigDataRate	OrigDataStartFrame	OrigNumFrames
58.0	58.0	5	27	m	58.0	106	212
Frame#	Time	RHip			RKnee			RAnkle			RBigToe			RSmallToe			RHeel			LHip			LKnee			LAnkle			LBigToe			LSmallToe			LHeel			Neck			Head			Nose			RShoulder			RElbow			RWrist			RThumb			RIndex			RPinky			LShoulder			LElbow			LWrist			LThumb			LIndex			LPinky			
		X1	Y1	Z1	X2	Y2	Z2	X3	Y3	Z3	X4	Y4	Z4	X5	Y5	Z5	X6	Y6	Z6	X7	Y7	Z7	X8	Y8	Z8	X9	Y9	Z9	X10	Y10	Z10	X11	Y11	Z11	X12	Y12	Z12	X13	Y13	Z13	X14	Y14	Z14	X15	Y15	Z15	X16	Y16	Z16	X17	Y17	Z17	X18	Y18	Z18	X19	Y19	Z19	X20	Y20	Z20	X21	Y21	Z21	X22	Y22	Z22	X23	Y23	Z23	X24	Y24	Z24	X25	Y25	Z25	X26	Y26	Z26	X27	Y27	Z27	
106	1.827586206896552	0.30256292519235095	0.36125405016571865	1.1468423803049326	0.24360221885983024	0.427274979015217	1.579543670075811	0.22631513947897003	0.6186774739368	2.0216845112703563	0.21720662659180187	0.39994711477296957	2.042821477057491	0.267991022435091	0.44269813434745664	2.052655600154728	0.21443470329220815	0.6722063708717965	2.0711842398409965	0.1059608576219896	0.3534981129545771	1.1455922802390042	0.108048862957566	0.41131627174778	1.5666498842376702	0.06558295989667756	0.567808967830182	2.0201196008127313	0.06946453039643766	0.39114598646432663	2.0472535224645814	0.028109293188857257	0.4073908063719137	2.033707002986742	0.0821487374624737	0.6463092520118942	2.0772448336578946	0.20318312414353973	0.2734981924697783	0.5963668417613015	0.21301980696574385	0.21238181906130693	0.37276491264356904	0.21560136240591146	0.15025679444809756	0.4979261371094257	0.3418295192546064	0.29964689720138843	0.6709356085723323	0.522615467316007	0.1592058307972274	0.6677308559281472	0.4690435226466872	0.19067824850278758	0.49001762110581265	0.41439807033252174	0.24869174916220027	0.3959858081405253	0.4415750390234134	0.2512767564043492	0.37390242005420654	0.4805441693860426	0.22967139720788654	0.3898295469934653	0.06319493700618282	0.30539582474883703	0.6612814020318978	-0.12837934525619688	0.1357032302149902	0.5984968072563249	-0.05796648652810679	0.19419917091128752	0.43075599881570353	0.014344407388960836	0.2478937030494941	0.3674515082171543	0.006246745426585345	0.24271784984567937	0.3414527542499644	-0.02521994269655703	0.2095956332714246	0.3576746315961595
107	1.8448275862068968	0.30254720576212313	0.3611406934204131	1.1467611428193045	0.24438274452429593	0.4300548958362262	1.5792301959570185	0.22633086264585192	0.6186577202216103	2.021775028881785	0.217168370683182	0.4000416710614121	2.042781282232459	0.2687137095055303	0.44206366816575154	2.0523541354360044	0.21411580001096603	0.6726637415789161	2.0712677122326695	0.10597444807478343	0.3534558905155825	1.1454667427634555	0.1078395137615414	0.4098154818446758	1.5637956166827947	0.06390561989779031	0.5667538566393892	2.019686728792849	0.0693928690398993	0.3894271314887785	2.046074430940844	0.02627172863692625	0.412720789908994	2.036282243460448	0.0820805045180667	0.6462966082891037	2.077018931387346	0.20209418303816434	0.27697027826902954	0.5954857958506458	0.21204932548187216	0.21792743212134524	0.36740310814581567	0.21562593793479862	0.14983812393574866	0.4949734249663388	0.3422900777743198	0.30449693209696205	0.6698209019340329	0.5194815526042315	0.16029824012978874	0.6620050923340662	0.4732212781429884	0.16116578609990262	0.4711814962138439	0.4265099109523673	0.21556198401733373	0.3745040502447931	0.4493249431659581	0.208084468684336	0.35361727457896547	0.49445650022795196	0.19428740913546166	0.3690285519713402	0.06367500038573815	0.3092569389968708	0.6590958776508056	-0.12156103298475314	0.13842765899863763	0.5879296356723605	-0.05884641516359483	0.17605261177454856	0.4094236413534944	0.00600264518102014	0.22857655061024285	0.3405650142624232	-0.003089410394107213	0.22260870787030027	0.3106216918155681	-0.029545326278252404	0.1805621231689257	0.32697099953168174
108	1.862068965517241	0.30254758295655376	0.36097506638653315	1.1466520150745132	0.24460718493646694	0.4308529126954976	1.5794691446663824	0.22635052978667836	0.6186629954022507	2.021834325803529	0.21715531049603634	0.40013383585925244	2.0427856374239943	0.2695195472749183	0.44402194540209783	2.053379527592619	0.21366772917369886	0.6734044702205065	2.0714028934717645	0.10602127247916358	0.35344533287259167	1.1452688682312704	0.10777944598514427	0.40844344850736075	1.56083530766022	0.06222727452051526	0.5675019544167391	2.019588228260603	0.0688231937201563	0.38563451107322827	2.043157539782925	0.024932771540927365	0.41654771004077545	2.038264387985319	0.08211033019266258	0.6462495727428447	2.0762872918652944	0.20061943767675183	0.28146908246635	0.5935385814889376	0.21130901428497498	0.2205438644712075	0.3638192002505525	0.21524263374917185	0.15109452956360678	0.4925372949130895	0.34362727809818605	0.3139415125516885	0.6689408260659948	0.5159128848552842	0.166836125154575	0.6524097558580827	0.4784678600247409	0.1211053834009678	0.45015255630177176	0.43770962182565926	0.166561305950642	0.3498589340993871	0.4579221666410059	0.15221294664238966	0.3307928361687563	0.5092608792954292	0.14337222477601935	0.3461881028378952	0.06256648270450219	0.314817532435552	0.6548226801548958	-0.11329127982186055	0.14338608310338005	0.5733404046187356	-0.05940937103300004	0.1474050767128247	0.38487588142213036	-0.001716745767298686	0.19561878764925988	0.3099024659004928	-0.011629521900189052	0.18978741402973415	0.27781171939814975	-0.03577631701103492	0.1437495806137918	0.295488787418935
109	1.8793103448275863	0.3025399200862133	0.3608471600770983	1.1465347468265965	0.2448657266274599	0.43172689661218144	1.5799995010732666	0.22635786712124534	0.6187157155371767	2.021844663593321	0.21715704219904353	0.40019587775343424	2.0428095527404273	0.27034998917472647	0.4467458942328492	2.0548067450730096	0.21326580959152833	0.6743092007501925	2.071535552443593	0.10604582407970706	0.35345137272395477	1.1450341333398875	0.10782194226473096	0.40745896523611624	1.558120965020711	0.06066110671137801	0.5712179231363097	2.0200364023280932	0.06787473128889814	0.38281138189852515	2.040750449808225	0.02449075613747318	0.41775325154094944	2.039239745885104	0.08231639911401226	0.6459087661427003	2.074602147323928	0.19955021054528357	0.28511898552083453	0.5910818359526292	0.2110009466102227	0.22121244539735105	0.36308973745772727	0.21418616428376083	0.15437405723352252	0.4912542791192076	0.34551796237721905	0.3275381507034328	0.6681182642267228	0.5115672090993235	0.17874284240888896	0.6377511283366863	0.48541119305160524	0.08341529667948896	0.4310168029149851	0.4476241546938879	0.110880310755603	0.32875180030149664	0.4684488943411486	0.09176278992479014	0.3125502449412016	0.5215664884867823	0.08510532913923192	0.3280543587906407	0.06056024842401506	0.32113068564915404	0.6490647904954027	-0.10320108509269738	0.14885867184018972	0.5552631787671525	-0.06118856279953186	0.11554590742094277	0.36279295103718995	-0.006165838694417594	0.14594483538082315	0.2814168122987939	-0.017488642004691236	0.13868862275312446	0.25172431097210124	-0.044539869712357516	0.10588340601083429	0.27015402830847957
110	1.896551724137931	0.3025271514394583	0.36078638193564405	1.1464352379072391	0.24569419585980637	0.4345137633022208	1.580345711186773	0.226353713572085	0.6188215185873369	2.02181536417299	0.2171568397812354	0.4002401313138608	2.0428232673590645	0.27026120568962003	0.4481324478616501	2.0555548776322063	0.21304162107994576	0.6751567897332152	2.071562842766311	0.10603675724735238	0.35346073688007557	1.144814566572889	0.10788981754307689	0.4069199616377531	1.5560124884378892	0.05921691146368468	0.5765545867426479	2.0207850373684835	0.06709788293251703	0.3839443402241306	2.041071557638857	0.02446126593816266	0.4178465058554433	2.039749642493453	0.08256049912104788	0.6451575958360869	2.0721902442836955	0.19949486337911035	0.2877329630626313	0.5892936778583748	0.21100001050265726	0.22152853192910266	0.365020267878421	0.21275280570157304	0.15841597529614532	0.4909253299102459	0.3475582829674565	0.3429953698766189	0.6666079750560574	0.5064447190112491	0.19075903475301653	0.618838534807968	0.49415732429676895	0.05250518364207318	0.41709591340709373	0.4581506324479178	0.05394330720214756	0.3170655348549462	0.48131671739142357	0.03392974639127634	0.3021184691521376	0.5292707654346751	0.02354857731009992	0.32031613023217836	0.05864461065953642	0.3280442695958154	0.6431626626676837	-0.09169534547111287	0.15186981424452534	0.5363855892581187	-0.06520194926692625	0.0864284299411866	0.3471910540234289	-0.008381570785218872	0.08573868013883681	0.2601637436693694	-0.02138555960656395	0.07394433623520343	0.23840838447668478	-0.05456931728805535	0.06732930053659875	0.25503497666302605
